<svg width="128" height="128" viewBox="0 0 128 128" fill="none"
    xmlns="http://www.w3.org/2000/svg">
    <path d="M19.6489 1.25001C17.274 -0.599985 13.8992 -0.374985 11.7494 1.75001L1.74991 11.75C-0.374975 13.875 -0.599963 17.25 1.22494 19.65L21.2238 45.65C22.3488 47.125 24.1237 48 25.9736 48H39.4978L66.7463 75.25C63.0715 82.5 64.2465 91.6 70.3211 97.65L98.3196 125.65C101.444 128.775 106.519 128.775 109.644 125.65L125.643 109.65C128.768 106.525 128.768 101.45 125.643 98.325L97.6446 70.325C91.5949 64.275 82.4954 63.075 75.2458 66.75L47.9973 39.5V26C47.9973 24.125 47.1224 22.375 45.6475 21.25L19.6489 1.25001ZM4.97473 99.025C1.7999 102.2 4.01003e-06 106.525 4.01003e-06 111.025C4.01003e-06 120.4 7.59958 128 16.9741 128C21.4738 128 25.7986 126.2 28.9734 123.025L58.4218 93.575C56.4719 88.35 56.1719 82.675 57.5218 77.3L42.0977 61.875L4.97473 99.025ZM127.993 36C127.993 33.375 127.718 30.825 127.193 28.375C126.593 25.575 123.168 24.85 121.143 26.875L105.169 42.85C104.419 43.6 103.394 44.025 102.344 44.025H87.9951C85.7953 44.025 83.9954 42.225 83.9954 40.025V25.65C83.9954 24.6 84.4203 23.575 85.1703 22.825L101.144 6.85001C103.169 4.82501 102.444 1.40001 99.6445 0.800015C97.1696 0.275015 94.6198 1.45622e-05 91.9949 1.45622e-05C72.121 1.45622e-05 55.9969 16.125 55.9969 36V36.2L77.3207 57.525C86.3202 55.25 96.2697 57.65 103.319 64.7L107.244 68.625C119.493 62.875 127.993 50.425 127.993 36ZM13.9992 108C13.9992 106.409 14.6313 104.883 15.7565 103.757C16.8816 102.632 18.4077 102 19.9989 102C21.5901 102 23.1161 102.632 24.2413 103.757C25.3665 104.883 25.9986 106.409 25.9986 108C25.9986 109.591 25.3665 111.117 24.2413 112.243C23.1161 113.368 21.5901 114 19.9989 114C18.4077 114 16.8816 113.368 15.7565 112.243C14.6313 111.117 13.9992 109.591 13.9992 108Z" fill="#343A40"/>
</svg>
