<svg width="128" height="128" viewBox="0 0 128 128" fill="none"
    xmlns="http://www.w3.org/2000/svg">
    <path d="M112 0C108 0 80 8 80 44V72C80 80.825 87.175 88 96 88H104V120C104 124.425 107.575 128 112 128C116.425 128 120 124.425 120 120V88V60V8C120 3.575 116.425 0 112 0ZM24 4C24 1.95 22.475 0.25 20.425 0.025C18.375 -0.2 16.55 1.15 16.1 3.125L8.525 37.2C8.175 38.775 8 40.375 8 41.975C8 53.45 16.775 62.875 28 63.9V120C28 124.425 31.575 128 36 128C40.425 128 44 124.425 44 120V63.9C55.225 62.875 64 53.45 64 41.975C64 40.375 63.825 38.775 63.475 37.2L55.9 3.125C55.45 1.125 53.575 -0.2 51.55 0.025C49.525 0.25 48 1.95 48 4V37.55C48 38.9 46.9 40 45.55 40C44.275 40 43.225 39.025 43.1 37.75L39.975 3.65C39.8 1.575 38.075 0 36 0C33.925 0 32.2 1.575 32.025 3.65L28.925 37.75C28.8 39.025 27.75 40 26.475 40C25.125 40 24.025 38.9 24.025 37.55V4H24ZM36.075 42H36H35.925L36 41.825L36.075 42Z" fill="#343A40"/>
</svg>
