<svg width="48" height="48" viewBox="0 0 48 48" fill="none"
    xmlns="http://www.w3.org/2000/svg">
    <path d="M19 11C19 9.34375 20.3438 8 22 8H40C41.6562 8 43 9.34375 43 11V37C43 38.6562 41.6562 40 40 40H26.8312C26.9437 39.6875 27 39.35 27 39V23.8313C28.1625 23.4188 29 22.3062 29 21V19C29 17.3438 27.6562 16 26 16H19V11ZM38.7062 29.7062C39.0937 29.3187 39.0937 28.6813 38.7062 28.2938L34.7062 24.2938C34.3187 23.9063 33.6813 23.9063 33.2938 24.2938L29.2938 28.2938C28.9063 28.6813 28.9063 29.3187 29.2938 29.7062C29.6813 30.0937 30.3187 30.0937 30.7062 29.7062L33 27.4125V35C33 35.55 33.45 36 34 36C34.55 36 35 35.55 35 35V27.4125L37.2938 29.7062C37.6813 30.0937 38.3187 30.0937 38.7062 29.7062ZM3 19C3 18.45 3.45 18 4 18H26C26.55 18 27 18.45 27 19V21C27 21.55 26.55 22 26 22H4C3.45 22 3 21.55 3 21V19ZM25 24V38C25 39.1063 24.1063 40 23 40H7C5.89375 40 5 39.1063 5 38V24H25ZM12 28C11.45 28 11 28.45 11 29C11 29.55 11.45 30 12 30H18C18.55 30 19 29.55 19 29C19 28.45 18.55 28 18 28H12Z" fill="white"/>
</svg>
