<svg width="128" height="128" viewBox="0 0 128 128" fill="none"
    xmlns="http://www.w3.org/2000/svg">
    <path d="M48 0C44.675 0 42 2.675 42 6C42 9.325 44.675 12 48 12C49.1 12 50 12.9 50 14V30.225C50 33.275 48.2 36 45.7 37.75C37.425 43.525 32 53.125 32 64V112C32 120.825 39.175 128 48 128H80C88.825 128 96 120.825 96 112V64C96 53.125 90.575 43.525 82.3 37.75C79.8 36 78 33.275 78 30.225V14C78 12.9 78.9 12 80 12C83.325 12 86 9.325 86 6C86 2.675 83.325 0 80 0H78H50H48ZM64 95.5C57.375 95.5 52 90.475 52 84.25C52 80.05 57.525 72.225 61.075 67.65C62.575 65.7 65.45 65.7 66.95 67.65C70.475 72.225 76 80.05 76 84.25C76 90.475 70.625 95.5 64 95.5Z" fill="#343A40"/>
</svg>
