<svg width="128" height="120" viewBox="0 0 128 120" fill="none"
    xmlns="http://www.w3.org/2000/svg">
    <path d="M46 12H82C83.1 12 84 12.9 84 14V24H44V14C44 12.9 44.9 12 46 12ZM32 14V24H16C7.175 24 0 31.175 0 40V104C0 112.825 7.175 120 16 120H112C120.825 120 128 112.825 128 104V40C128 31.175 120.825 24 112 24H96V14C96 6.275 89.725 0 82 0H46C38.275 0 32 6.275 32 14ZM56 52C56 49.8 57.8 48 60 48H68C70.2 48 72 49.8 72 52V64H84C86.2 64 88 65.8 88 68V76C88 78.2 86.2 80 84 80H72V92C72 94.2 70.2 96 68 96H60C57.8 96 56 94.2 56 92V80H44C41.8 80 40 78.2 40 76V68C40 65.8 41.8 64 44 64H56V52Z" fill="#343A40"/>
</svg>
