<svg width="128" height="128" viewBox="0 0 128 128" fill="none"
    xmlns="http://www.w3.org/2000/svg">
    <g clip-path="url(#clip0_1664_31)">
        <path d="M47.825 1.3499C49.775 -0.47501 52.8 -0.450012 54.75 1.3749C61.65 7.84958 68.125 14.8242 74.175 22.3739C76.925 18.774 80.05 14.8492 83.425 11.6494C85.4 9.79948 88.45 9.79948 90.425 11.6744C99.075 19.924 106.4 30.8234 111.55 41.1729C116.625 51.3724 120 61.7969 120 69.1466C120 101.045 95.05 127.994 64 127.994C32.6 127.994 8 101.02 8 69.1216C8 59.522 12.45 47.7976 19.35 36.1982C26.325 24.4238 36.175 12.1494 47.825 1.3499ZM64.425 103.995C70.75 103.995 76.35 102.245 81.625 98.7451C92.15 91.3955 94.975 76.6962 88.65 65.1468C87.525 62.8969 84.65 62.7469 83.025 64.6468L76.725 71.9714C75.075 73.8713 72.1 73.8213 70.55 71.8464C66.425 66.5967 59.05 57.2221 54.85 51.8974C53.275 49.8975 50.275 49.8725 48.675 51.8724C40.225 62.4969 35.975 69.1966 35.975 76.7212C36 93.8453 48.65 103.995 64.425 103.995Z" fill="#343A40"/>
    </g>
    <defs>
        <clipPath id="clip0_1664_31">
            <rect width="128" height="128" fill="white"/>
        </clipPath>
    </defs>
</svg>
