<svg width="32" height="32" viewBox="0 0 32 32" fill="none"
    xmlns="http://www.w3.org/2000/svg">
    <path d="M16 16C18.1217 16 20.1566 15.1571 21.6569 13.6569C23.1571 12.1566 24 10.1217 24 8C24 5.87827 23.1571 3.84344 21.6569 2.34315C20.1566 0.842855 18.1217 0 16 0C13.8783 0 11.8434 0.842855 10.3431 2.34315C8.84285 3.84344 8 5.87827 8 8C8 10.1217 8.84285 12.1566 10.3431 13.6569C11.8434 15.1571 13.8783 16 16 16ZM13.1438 19C6.9875 19 2 23.9875 2 30.1437C2 31.1687 2.83125 32 3.85625 32H28.1437C29.1687 32 30 31.1687 30 30.1437C30 23.9875 25.0125 19 18.8563 19H13.1438Z" fill="white"/>
</svg>
